<svg xmlns="http://www.w3.org/2000/svg" xml:space="preserve" id="Layer_1" x="0" y="0" viewBox="0 0 1080 1080"><style>.st0{fill:#cd285c}.st1{fill:#d65474}</style><path d="M211.9 294.67 482.79 23.78c31.71-31.71 83.1-31.71 114.53 0l270.61 270.61c19.68 19.68 19.68 51.39 0 70.8l-15.31 15.58-21.87 21.87c-19.68 19.68-51.39 19.68-71.07 0L575.45 218.4c-19.41-19.68-51.12-19.68-70.8 0l-184.5 184.24c-16.13 16.4-40.45 19.13-59.59 8.2-4.1-1.91-7.93-4.92-11.21-8.2l-21.87-21.87-15.58-15.31c-2.46-2.73-4.65-5.47-6.56-8.47-12.57-19.41-10.39-45.38 6.56-62.32" class="st0"/><path d="M874.6 356.99c-12.57 12.85-33.35 12.85-45.92.27l-31.44 31.16 22.14 22.41c4.1-1.91 7.93-4.92 11.21-8.2l21.87-21.87 15.58-15.31c2.46-2.72 4.65-5.45 6.56-8.46M205.34 356.99c12.57 12.85 33.35 12.85 45.92.27l31.44 31.16-22.14 22.41c-4.1-1.91-7.93-4.92-11.21-8.2l-21.87-21.87-15.58-15.31c-2.46-2.72-4.64-5.45-6.56-8.46" class="st1"/><path d="m852.69 380.89-21.87 21.87c-19.68 19.68-51.39 19.68-71.07 0L575.52 218.53c-19.41-19.68-51.12-19.68-70.8 0l-184.5 184.23c-19.41 19.68-51.12 19.68-70.8 0l-21.87-21.87 265.69-265.96c25.97-25.69 67.79-25.69 93.76 0z" class="st1"/><path d="m868.1 785.33-270.89 270.89c-31.71 31.71-83.1 31.71-114.53 0L212.07 785.61c-19.68-19.68-19.68-51.39 0-70.8l15.31-15.58 21.87-21.87c19.68-19.68 51.39-19.68 71.07 0L504.55 861.6c19.41 19.68 51.12 19.68 70.8 0l184.51-184.24c16.13-16.4 40.45-19.13 59.59-8.2 4.1 1.91 7.93 4.92 11.21 8.2l21.87 21.87 15.58 15.31c2.46 2.73 4.65 5.47 6.56 8.47 12.56 19.41 10.38 45.38-6.57 62.32" class="st0"/><path d="M205.4 723.01c12.57-12.85 33.35-12.85 45.92-.27l31.44-31.16-22.14-22.41c-4.1 1.91-7.93 4.92-11.21 8.2l-21.87 21.87-15.58 15.31c-2.46 2.72-4.65 5.45-6.56 8.46M874.66 723.01c-12.57-12.85-33.35-12.85-45.92-.27l-31.44-31.16 22.14-22.41c4.1 1.91 7.93 4.92 11.21 8.2l21.87 21.87 15.58 15.31c2.46 2.72 4.64 5.45 6.56 8.46" class="st1"/><path d="m227.31 699.11 21.87-21.87c19.68-19.68 51.39-19.68 71.07 0l184.23 184.24c19.41 19.68 51.12 19.68 70.8 0l184.51-184.24c19.41-19.68 51.12-19.68 70.8 0l21.87 21.87-265.7 265.96c-25.97 25.69-67.79 25.69-93.76 0z" class="st1"/><path d="M446.28 433.14c36.49-50.27 184.83-36.45 193.12 14.22-75.55 22.11 82.45 106.49 152.26 69.56 0 63.58-170.69 46.33-87.76 114.71-27.64 61.5-86.61-.92-133.53 59.37-65.49 80.68-80.4-68.42-191.95-46.24 55.51-48.94-17.51-118.17-114.94-79.47 20.73-33.86 86.38-89.84 106.42-44.92 22.11 35.19 134.06-75.77 76.38-87.23" style="fill:#ff899d"/><path d="m509.15 641.78-54.14-54.14c-17.78-17.78-17.78-46.61 0-64.39l54.14-54.14c17.78-17.78 46.61-17.78 64.39 0l54.14 54.14c17.78 17.78 17.78 46.61 0 64.39l-54.14 54.14c-17.78 17.78-46.61 17.78-64.39 0" style="fill:#fff"/></svg>