<svg xmlns="http://www.w3.org/2000/svg" xml:space="preserve" id="Layer_1" x="0" y="0" viewBox="0 0 1080 1080"><style>.st0{fill:#fff}</style><path d="m517.6 649.89-87.49-87.49c-12.37-12.37-12.37-32.42 0-44.79l87.49-87.49c12.37-12.37 32.42-12.37 44.79 0l87.49 87.49c12.37 12.37 12.37 32.42 0 44.79l-87.49 87.49c-12.36 12.36-32.42 12.36-44.79 0" class="st0"/><path d="M923.69 330.81 630.4 37.52c-50.03-50.03-130.77-50.03-180.8 0L156.31 330.81c-24.15 24.15-37.61 56.59-37.61 90.75v236.88c0 34.16 13.46 66.59 37.61 90.75l293.29 293.29c50.03 50.03 130.77 50.03 180.8 0l293.29-293.29c24.15-24.15 37.61-56.59 37.61-90.75V421.56c0-34.16-13.46-66.6-37.61-90.75M773.6 549.06c0 34.16-13.46 66.59-37.61 90.75L630.4 745.05c-50.03 50.03-130.77 50.03-180.8 0L344.01 639.81c-24.15-24.15-37.61-56.59-37.61-90.75v-18.12c0-34.16 13.46-66.59 37.61-90.75L449.6 334.95c50.03-50.03 130.77-50.03 180.8 0l105.58 105.24c24.15 24.15 37.61 56.59 37.61 90.75v18.12z" style="fill:#9291d9"/><path d="M837.77 394.3 610.04 166.92c-38.64-38.64-101.44-38.64-140.09 0L242.22 394.3c-18.63 18.63-28.98 44.17-28.98 70.39v150.62c0 26.22 10.35 51.76 28.98 70.39l227.73 227.39c38.64 38.64 101.44 38.64 140.09 0L837.77 685.7c18.63-18.63 28.98-44.16 28.98-70.39V464.69c.01-26.22-10.34-51.76-28.98-70.39M773.6 549.06c0 34.16-13.46 66.59-37.61 90.75L630.4 745.05c-50.03 50.03-130.77 50.03-180.8 0L344.01 639.81c-24.15-24.15-37.61-56.59-37.61-90.75v-18.12c0-34.16 13.46-66.59 37.61-90.75L449.6 334.95c50.03-50.03 130.77-50.03 180.8 0l105.58 105.24c24.15 24.15 37.61 56.59 37.61 90.75v18.12z" class="st0" style="opacity:.25"/></svg>