<svg xmlns="http://www.w3.org/2000/svg" id="Layer_1" viewBox="0 0 1080 1080"><defs><style>.st1{fill:#ccc}</style></defs><path d="m212.9 197.4 74.7 170.3c2.9 6.7 7.1 12.8 12.3 18L630.2 716l181-181-330-330.1c-5.4-5.4-11.7-9.7-18.8-12.6l-172.8-72.8c-49-20.6-98.1 29.2-76.7 77.9" class="st1"/><path d="m783.9 116.8-170.3 74.7c-6.7 2.9-12.8 7.1-18 12.3L265.3 534.1l181 181 330-330c5.4-5.4 9.7-11.7 12.6-18.8l72.8-172.8c20.6-49-29.2-98.1-77.9-76.7Z" style="fill:#e6e6e6"/><path d="m503.1 797.1-54 54c-8.5 8.5-22.3 8.5-30.8 0l-84.8-84.8c-8.5-8.5-22.3-8.5-30.8 0l-77.1 77.1c-8.5 8.5-8.5 22.3 0 30.8s8.5 22.3 0 30.8l-61.7 61.7c-8.5 8.5-22.3 8.5-30.8 0L17.5 851.1c-8.5-8.5-8.5-22.3 0-30.8l61.7-61.7c8.5-8.5 22.3-8.5 30.8 0s22.3 8.5 30.8 0l77.1-77.1c8.5-8.5 8.5-22.3 0-30.8L133.1 566c-8.5-8.5-8.5-22.3 0-30.8l54-54c8.5-8.5 22.3-8.5 30.8 0L503 766.3c8.5 8.5 8.5 22.3 0 30.8Z" class="st1"/><path d="m893.2 478.2 54 54c8.5 8.5 8.5 22.3 0 30.8l-84.8 84.8c-8.5 8.5-8.5 22.3 0 30.8l77.1 77.1c8.5 8.5 22.3 8.5 30.8 0s22.3-8.5 30.8 0l61.7 61.7c8.5 8.5 8.5 22.3 0 30.8L947.2 963.8c-8.5 8.5-22.3 8.5-30.8 0l-61.7-61.7c-8.5-8.5-8.5-22.3 0-30.8s8.5-22.3 0-30.8l-77.1-77.1c-8.5-8.5-22.3-8.5-30.8 0l-84.7 84.8c-8.5 8.5-22.3 8.5-30.8 0l-54-54c-8.5-8.5-8.5-22.3 0-30.8l285.1-285.1c8.5-8.5 22.3-8.5 30.8 0Z" style="fill:#999"/></svg>