<svg xmlns="http://www.w3.org/2000/svg" xml:space="preserve" id="Layer_1" x="0" y="0" viewBox="0 0 1080 1080"><style>.st0{fill:#d44e50}.st2{fill:#fff}.st3{fill:none;stroke:#9d2323;stroke-width:30.0834;stroke-linecap:round;stroke-linejoin:round;stroke-miterlimit:10}.st5{fill:#8083bf}.st8{opacity:.21;fill:#c7a3e8}</style><path d="M-695.24 2086.77c0 52.05-40.1 105.53-121.28 142.77-81.18-37.24-121.3-90.73-121.3-142.77 0-33.49 27.15-60.64 60.66-60.64 27.21 0 42.49 15.28 60.64 42.98 18.14-27.7 33.42-42.98 60.64-42.98 33.48-.01 60.64 27.15 60.64 60.64" class="st0"/><path d="M867.63 644.62C859.91 818.87 716.16 957.78 540 957.78S220.09 818.87 212.37 644.62c115.01-29.67 230.55-35.42 327.63 0 94.58 34.51 206.02 52.74 327.63 0" style="fill:#d65474"/><path d="M574.61 285.31v65.6c0 35.19 21.51 66.8 54.24 79.72 22.23 8.77 43.04 20.81 61.84 35.78a244.1 244.1 0 0 1 48.62 51.94c28.11 40.56 42.97 88.21 42.97 137.81 0 64.71-25.2 125.55-70.97 171.32-45.76 45.76-106.61 70.97-171.32 70.97s-125.55-25.2-171.32-70.97c-45.76-45.76-70.97-106.61-70.97-171.32 0-49.59 14.86-97.25 42.97-137.81a243.9 243.9 0 0 1 48.62-51.94c18.8-14.97 39.61-27 61.84-35.78 32.73-12.92 54.24-44.53 54.24-79.72v-65.6zm85.71-85.7H419.68v151.3c-121.6 48-207.67 166.57-207.67 305.24 0 181.14 146.85 327.99 327.99 327.99s327.99-146.85 327.99-327.99c0-138.68-86.07-257.25-207.67-305.24z" class="st2"/><path d="M655.37 77.64H418.03c-40.96 0-74.17 33.21-74.17 74.17s33.21 74.17 74.17 74.17h237.34c40.96 0 74.17-33.21 74.17-74.17s-33.2-74.17-74.17-74.17" class="st2"/><path d="M-883.91 2089.32c7.17 15.78 19.92 31.57 38.24 47.35M-749.15 2089.32c-7.17 15.78-19.92 31.57-38.24 47.35" class="st3"/><path d="M-820.34 2393.68c37.18 0 67.43 30.25 67.43 67.43s-30.25 67.43-67.43 67.43-67.43-30.25-67.43-67.43 30.25-67.43 67.43-67.43m0-23.79c-50.38 0-91.23 40.84-91.23 91.23 0 50.38 40.84 91.23 91.23 91.23s91.23-40.84 91.23-91.23c-.01-50.39-40.85-91.23-91.23-91.23" class="st0"/><path d="m-868.05 2509.31 94.5-94.49" style="fill:none;stroke:#d44e50;stroke-width:23.7932;stroke-linecap:round;stroke-linejoin:round;stroke-miterlimit:10"/><path d="M-811.04 1709.56c-1.38 0-2.74 0-4.09.01v-.02c1.37 0 2.74 0 4.09.01" class="st5"/><path d="M-867.81 1864.15c29.44-12.93 60.39-13.73 93.16 0l37.54-25.18-10.66-93.27H-893.3l-13.9 75.2z" style="fill:#6e4a91"/><path d="M-769.4 1872.74c-16.55 0-23.45 3.87-23.45-12.67 0-16.55 6.9-29.96 23.45-29.96v-.01c20.28-.25 23.18-16.39 22.85-38.07-.15-9.97-6.45-18.64-15.3-21.91-2.43-.91-5.05-1.4-7.79-1.4-26.48 0-33.61 7.3-33.61 21.34 0 20.37-8.88 25.76-15.89 25.76h-3.9c-7 0-15.88-5.69-15.88-25.76 0-12.31-5.48-19.43-24.65-21-2.7-.22-5.68-.33-8.96-.33-12.71 0-22.89 10.6-23.09 23.31-.15 9.6.34 18.12 2.69 24.64 2.96 8.22 8.86 13.29 20.16 13.43v.01c16.55 0 18.18 13.42 18.18 29.96 0 16.55-1.64 12.67-18.18 12.67-22.02 0-33.73-9.75-39.96-23.96-7.69-17.51-7.02-41.78-7.02-62.93 0-69.81 44.45-86.97 98.67-86.97h.79c36.79.1 66.69 7.28 83.37 30.8 9.3 13.11 14.49 31.29 14.49 56.17.01 38.31 2.16 86.88-46.97 86.88" style="fill:#8f72a5"/><path d="M-806.95 1709.55v.02c-1.35-.01-2.72-.01-4.09-.01 1.35-.01 2.71-.01 4.09-.01" class="st5"/><path d="M-854.59 1860.07c0 16.55-1.64 12.67-18.18 12.67-22.02 0-33.73-9.75-39.96-23.96l19.8-32.12c2.96 8.22 8.86 13.29 20.16 13.43v.01c16.55.01 18.18 13.42 18.18 29.97M-736.92 1729.68l-24.93 40.44c-2.43-.91-5.05-1.4-7.79-1.4-26.48 0-33.61 7.3-33.61 21.34 0 20.37-8.88 25.76-15.89 25.76h-3.9c-7 0-15.88-5.69-15.88-25.76 0-12.31-5.48-19.43-24.65-21l43.28-70.17c36.79.1 66.69 7.27 83.37 30.79" class="st8"/></svg>