<svg xmlns="http://www.w3.org/2000/svg" id="Layer_1" viewBox="0 0 1080 1080"><defs><style>.st4{fill:#ffaf00}</style></defs><path d="M859.2 273.1v63.7c0 178.7-143.7 421.8-322.1 425.6-1.6.3-2.9.3-4.5.3-180.3 0-326.5-245.6-326.5-425.9v-132c0-90.2 73.3-95.1 163.4-95.1h326.2c90.2 0 163.4 73.3 163.4 163.4Z" class="st4"/><path d="M532.6 376.5v445.9" style="fill:none"/><path d="M621.2 376.7v445.7c0 47.5-37.3 86-84.1 88.6h-4.5c-49.1 0-88.6-39.5-88.6-88.6V376.7c0-49.1 39.5-88.9 88.6-88.9s88.6 39.8 88.6 88.9" class="st4"/><path d="M735.5 929.4c0 26.8-21.7 48.7-48.4 48.7h-309c-26.8 0-48.4-22-48.4-48.7s12.1-56.1 31.2-75.5c19.4-19.4 46.2-31.5 75.8-31.5h191.8c59.2 0 107 48.1 107 107" class="st4"/><path d="M818.2 230.5s176.3-42.8 176.3 95.2-77 427-302.6 345.7" style="fill:none;stroke-linecap:round;stroke-miterlimit:10;stroke-width:96.4px;stroke:#ffa100"/><path d="M255.7 230.5S79.4 187.7 79.4 325.7s77 427 302.6 345.7" style="fill:none;stroke:#ffaf00;stroke-linecap:round;stroke-miterlimit:10;stroke-width:96.4px"/><path d="M621.2 742.7v79.6h7.3c59.2 0 107 48.1 107 107S713.8 978 687.1 978h-150V109.7h158.6c90.2 0 163.4 5 163.4 95.1v132c0 149.4-100.7 344-238 405.8Z" style="fill:#ffa100"/></svg>